<?xml version="1.0" encoding="utf-8"?>
<!-- Generator: Adobe Illustrator 16.0.0, SVG Export Plug-In . SVG Version: 6.00 Build 0)  -->
<!DOCTYPE svg PUBLIC "-//W3C//DTD SVG 1.1//EN" "http://www.w3.org/Graphics/SVG/1.1/DTD/svg11.dtd">
<svg version="1.1" id="Ebene_1" xmlns="http://www.w3.org/2000/svg" xmlns:xlink="http://www.w3.org/1999/xlink" x="0px" y="0px"
	 width="595.28px" height="841.89px" viewBox="0 0 595.28 841.89" enable-background="new 0 0 595.28 841.89" xml:space="preserve">
<path fill="#FFFFFF" d="M182.335,723.94c0.379,53.161,2.108,92.249,6.178,96.588c12.484,13.302,60.243,20.148,109.818,21.758v0.021
	c0.079-0.004,0.159-0.007,0.239-0.011c0.083,0.004,0.164,0.007,0.244,0.011v-0.021c49.574-1.609,100.981-10.026,109.816-21.758
	c2.892-3.843,4.206-43.077,4.563-96.588H182.335z"/>
<g>
	<path fill="#FFFFFF" d="M259.948,66.569c0,0-0.522,5.91-1.422,15.757h80.094c-0.9-9.847-1.423-15.757-1.423-15.757l6.229-11.78
		c0,0,2.637-39.348-4.728-48.184c-6.845-8.215-35.375-7.073-39.349-6.873c-4.165-0.201-34.058-1.342-40.903,6.873
		c-7.363,8.836-4.727,48.184-4.727,48.184L259.948,66.569z"/>
	<path fill="#FFFFFF" d="M361.885,278.621c-3.628-6.113-10.138-62.982-15.562-116.286h-95.5
		c-5.425,53.303-11.934,110.172-15.561,116.286c-6.989,11.78-43.803,47.123-46.749,117.806c-0.381,9.165-0.875,22.866-1.415,39.79
		h222.786c-0.441-16.935-0.873-30.639-1.254-39.79C405.686,325.744,368.872,290.4,361.885,278.621z"/>
</g>
</svg>
