<svg width="234" height="186" viewBox="0 0 234 186" fill="none" xmlns="http://www.w3.org/2000/svg">
<path d="M176.982 105.274C160.916 89.1611 139.54 80.2881 116.789 80.2881C94.038 80.2881 72.661 89.1611 56.596 105.274L35.352 84.0921C57.087 62.2931 86.009 50.2871 116.79 50.2871C147.571 50.2871 176.493 62.2921 198.228 84.0921L176.982 105.274ZM116.788 30.2881C152.897 30.2881 186.833 44.3641 212.342 69.9241L233.576 48.7321C202.398 17.4931 160.922 0.288086 116.788 0.288086C72.653 0.288086 31.178 17.4931 0 48.7321L21.234 69.9241C46.743 44.3641 80.678 30.2881 116.788 30.2881ZM162.885 119.465C150.592 107.098 134.221 100.288 116.788 100.288C99.356 100.288 82.985 107.099 70.691 119.465L91.966 140.616C98.587 133.956 107.403 130.288 116.787 130.288C126.173 130.288 134.987 133.955 141.606 140.615L162.885 119.465ZM116.788 145.288C105.742 145.288 96.788 154.242 96.788 165.288C96.788 176.334 105.742 185.288 116.788 185.288C127.832 185.288 136.788 176.334 136.788 165.288C136.788 154.242 127.832 145.288 116.788 145.288Z" fill="white"/>
</svg>
