<svg width="469" height="369" viewBox="0 0 469 369" fill="none" xmlns="http://www.w3.org/2000/svg">
<path d="M190.346 4.56201C188.853 2.00201 186.087 0.541992 182.772 0.541992H142.061C137.201 0.541992 132.152 3.71301 130.054 8.08801L86.878 97.759C85.468 100.684 85.555 103.785 87.087 106.246C88.632 108.73 91.364 110.176 94.605 110.244L126.556 110.646L103.426 168.464C102.857 169.905 101.661 172.929 103.792 176.034C104.724 177.397 106.321 178.231 107.967 178.231H108.341C111.46 178.231 113.341 175.864 114.244 174.723L188.983 80.872C192.172 76.874 190.856 73.287 190.375 72.243C189.874 71.243 187.866 67.966 182.774 67.966H158.992L190.113 13.132C191.745 10.24 191.835 7.10801 190.346 4.56201Z" fill="white"/>
<path d="M35.65 311.31C38.9 315.477 40.366 320.711 39.717 325.959C39.068 331.206 36.372 335.925 32.205 339.176C25.077 344.816 23.802 355.13 29.352 362.247C32.127 365.805 36.087 367.949 40.249 368.464C44.412 368.978 48.775 367.862 52.332 365.088C63.413 356.445 70.464 343.997 72.197 329.974C73.931 315.952 70.123 302.16 61.481 291.079L37.139 259.869C30.399 251.227 31.953 238.65 40.596 231.911C49.237 225.171 61.813 226.725 68.553 235.367L92.894 266.577C101.855 278.064 114.62 284.785 128.011 286.44C141.401 288.095 155.419 284.685 166.905 275.726L210.721 241.551C226.844 256.771 247.333 266.378 269.682 269.141C297.548 272.585 325.128 264.972 347.291 247.686L397.714 208.357L402.076 213.949C404.851 217.506 408.812 219.65 412.973 220.164C417.134 220.679 421.497 219.564 425.056 216.79C432.183 211.149 433.458 200.833 427.909 193.718L399.918 157.832L462.226 109.316C469.354 103.675 470.629 93.36 465.078 86.244C459.438 79.118 449.124 77.843 442.008 83.392L379.792 131.919L338.084 78.446L400.299 29.919C407.428 24.279 408.703 13.965 403.152 6.84699C397.513 -0.279007 387.197 -1.555 380.082 3.995L317.865 52.522L289.874 16.636C284.234 9.50799 273.92 8.233 266.804 13.784C259.677 19.424 258.402 29.739 263.951 36.856L268.312 42.446L217.889 81.775C197.556 97.633 183.723 120.359 179.111 145.784C177.463 154.674 183.386 163.215 192.277 164.865C192.637 164.91 193 164.955 193.272 164.988C201.868 166.051 209.842 160.239 211.46 151.621C214.625 134.19 224.09 118.552 238.119 107.608L288.545 68.279L377.587 182.444L327.164 221.773C311.915 233.668 292.982 238.951 273.71 236.568C254.439 234.186 237.361 224.451 225.47 209.202C222.864 205.756 218.913 203.523 214.57 202.986C210.32 202.461 205.945 203.665 202.489 206.361L146.767 249.904C138.127 256.643 125.549 255.089 118.809 246.448L94.468 215.237C76.638 192.274 43.433 188.169 20.458 206.089C-2.50597 223.919 -6.61097 257.124 11.309 280.099L35.65 311.31Z" fill="white"/>
</svg>
